<svg width="14" height="14" viewBox="0 0 14 14" fill="none" xmlns="http://www.w3.org/2000/svg">
<path d="M13.4828 9.60587L10.519 8.33438C10.3487 8.26175 10.1594 8.2462 9.97949 8.29007C9.79959 8.33393 9.63873 8.43486 9.52095 8.57774L8.31509 10.0516C6.41839 9.11872 4.88388 7.5842 3.95102 5.68751L5.42485 4.48165C5.56772 4.36392 5.66863 4.2031 5.71249 4.02324C5.75636 3.84339 5.74083 3.65417 5.66821 3.48388L4.39673 0.517079C4.31722 0.333106 4.17573 0.182831 3.99687 0.0924034C3.81801 0.00197531 3.61311 -0.0228817 3.41782 0.0221576L0.661572 0.659267C0.473166 0.70188 0.304923 0.807466 0.184618 0.958593C0.0643126 1.10972 -0.000862015 1.29735 -0.000146763 1.49052C-0.000146763 8.41642 5.61352 14 12.5093 14C12.7032 14.0004 12.8913 13.9348 13.043 13.814C13.1946 13.6933 13.3006 13.5245 13.3436 13.3356L13.9777 10.582C14.0227 10.3871 13.9978 10.1826 13.9073 10.0042C13.8169 9.82575 13.6666 9.68477 13.4828 9.60587ZM12.4929 13.125C6.0811 13.1168 0.883056 7.92149 0.877587 1.50966L3.60102 0.880751L4.85884 3.8172L2.86821 5.44415C4.19165 8.26603 5.72563 9.80548 8.55845 11.1344L10.1854 9.14376L13.1218 10.4016L12.4929 13.125Z" fill="black"/>
</svg>
