<svg width="343" height="205" viewBox="0 0 343 205" fill="none" xmlns="http://www.w3.org/2000/svg">
<rect width="343" height="205" fill="#F5F5F5"/>
<g opacity="0.04">
<path d="M103.022 115.406H140.847M103.022 132.19H187.185" stroke="black" stroke-width="5" stroke-linecap="round" stroke-linejoin="round"/>
<path d="M253.103 71.2563H95.1169V94.1212H253.103V71.2563Z" stroke="black" stroke-width="5"/>
<path opacity="0.15" d="M240.941 57.2703C240.941 51.4324 237.455 49.973 235.712 49.973C236.725 49.6486 239.993 49 244.955 49C249.917 49 251.887 54.1081 252.252 56.6622C252.495 84.5541 252.982 141.773 252.982 147.514C252.982 153.254 249.82 155.824 248.239 156.392C242.198 156.473 231.236 156.586 235.712 156.392C240.187 156.197 241.063 151.284 240.941 148.851V57.2703Z" fill="black"/>
<path d="M244.468 49.6075C218.865 49.6073 139.144 49.6075 106.306 49.6075C93.5358 49.6075 94.9953 61.2836 94.9953 61.2836V71.2565V148.121C94.9953 148.121 93.4142 157 102.901 157C130.874 157 245.32 156.635 245.32 156.635C245.32 156.635 252.739 156.27 252.739 149.702C252.739 123.189 252.86 58.6075 252.86 58.6075C252.86 58.6075 252.86 49.6075 244.468 49.6075Z" stroke="black" stroke-width="5"/>
</g>
<path d="M66.3295 85.3636H69.0852L71.7386 90.375H71.8523L74.5057 85.3636H77.2614L73.017 92.8864V97H70.5739V92.8864L66.3295 85.3636ZM80.6747 97.1705C79.7921 97.1705 79.0289 96.983 78.3849 96.608C77.7448 96.2292 77.2505 95.7027 76.902 95.0284C76.5535 94.3504 76.3793 93.5644 76.3793 92.6705C76.3793 91.7689 76.5535 90.9811 76.902 90.3068C77.2505 89.6288 77.7448 89.1023 78.3849 88.7273C79.0289 88.3485 79.7921 88.1591 80.6747 88.1591C81.5573 88.1591 82.3187 88.3485 82.9588 88.7273C83.6027 89.1023 84.099 89.6288 84.4474 90.3068C84.7959 90.9811 84.9702 91.7689 84.9702 92.6705C84.9702 93.5644 84.7959 94.3504 84.4474 95.0284C84.099 95.7027 83.6027 96.2292 82.9588 96.608C82.3187 96.983 81.5573 97.1705 80.6747 97.1705ZM80.6861 95.2955C81.0876 95.2955 81.4228 95.1818 81.6918 94.9545C81.9607 94.7235 82.1634 94.4091 82.2997 94.0114C82.4399 93.6136 82.5099 93.161 82.5099 92.6534C82.5099 92.1458 82.4399 91.6932 82.2997 91.2955C82.1634 90.8977 81.9607 90.5833 81.6918 90.3523C81.4228 90.1212 81.0876 90.0057 80.6861 90.0057C80.2808 90.0057 79.9399 90.1212 79.6634 90.3523C79.3906 90.5833 79.1842 90.8977 79.044 91.2955C78.9077 91.6932 78.8395 92.1458 78.8395 92.6534C78.8395 93.161 78.9077 93.6136 79.044 94.0114C79.1842 94.4091 79.3906 94.7235 79.6634 94.9545C79.9399 95.1818 80.2808 95.2955 80.6861 95.2955ZM92.1406 93.2841V88.2727H94.5611V97H92.2372V95.4148H92.1463C91.9493 95.9261 91.6217 96.3371 91.1634 96.6477C90.7088 96.9583 90.1539 97.1136 89.4986 97.1136C88.9152 97.1136 88.402 96.9811 87.9588 96.7159C87.5156 96.4508 87.169 96.0739 86.919 95.5852C86.6728 95.0966 86.5478 94.5114 86.544 93.8295V88.2727H88.9645V93.3977C88.9683 93.9129 89.1065 94.3201 89.3793 94.6193C89.652 94.9186 90.0175 95.0682 90.4759 95.0682C90.7675 95.0682 91.0402 95.0019 91.294 94.8693C91.5478 94.733 91.7524 94.5322 91.9077 94.267C92.0668 94.0019 92.1444 93.6742 92.1406 93.2841ZM100.246 97V85.3636H102.706V90.1648H107.7V85.3636H110.155V97H107.7V92.1932H102.706V97H100.246ZM114.626 97.1648C114.07 97.1648 113.573 97.0682 113.138 96.875C112.702 96.678 112.357 96.3883 112.104 96.0057C111.854 95.6193 111.729 95.1383 111.729 94.5625C111.729 94.0777 111.818 93.6705 111.996 93.3409C112.174 93.0114 112.416 92.7462 112.723 92.5455C113.03 92.3447 113.378 92.1932 113.768 92.0909C114.162 91.9886 114.575 91.9167 115.007 91.875C115.515 91.822 115.924 91.7727 116.234 91.7273C116.545 91.678 116.77 91.6061 116.911 91.5114C117.051 91.4167 117.121 91.2765 117.121 91.0909V91.0568C117.121 90.697 117.007 90.4186 116.78 90.2216C116.556 90.0246 116.238 89.9261 115.825 89.9261C115.39 89.9261 115.043 90.0227 114.786 90.2159C114.528 90.4053 114.357 90.6439 114.274 90.9318L112.036 90.75C112.149 90.2197 112.373 89.7614 112.706 89.375C113.039 88.9848 113.469 88.6856 113.996 88.4773C114.526 88.2652 115.14 88.1591 115.837 88.1591C116.321 88.1591 116.786 88.2159 117.229 88.3295C117.676 88.4432 118.071 88.6193 118.416 88.858C118.765 89.0966 119.039 89.4034 119.24 89.7784C119.441 90.1496 119.541 90.5947 119.541 91.1136V97H117.246V95.7898H117.178C117.037 96.0625 116.85 96.303 116.615 96.5114C116.38 96.7159 116.098 96.8769 115.768 96.9943C115.439 97.108 115.058 97.1648 114.626 97.1648ZM115.32 95.4943C115.676 95.4943 115.99 95.4242 116.263 95.2841C116.536 95.1402 116.75 94.947 116.905 94.7045C117.06 94.4621 117.138 94.1875 117.138 93.8807V92.9545C117.062 93.0038 116.958 93.0492 116.825 93.0909C116.696 93.1288 116.551 93.1648 116.388 93.1989C116.225 93.2292 116.062 93.2576 115.899 93.2841C115.736 93.3068 115.589 93.3277 115.456 93.3466C115.172 93.3883 114.924 93.4545 114.712 93.5455C114.5 93.6364 114.335 93.7595 114.217 93.9148C114.1 94.0663 114.041 94.2557 114.041 94.483C114.041 94.8125 114.161 95.0644 114.399 95.2386C114.642 95.4091 114.948 95.4943 115.32 95.4943ZM129.243 88.2727L126.192 97H123.464L120.413 88.2727H122.97L124.783 94.517H124.874L126.68 88.2727H129.243ZM134.178 97.1705C133.28 97.1705 132.507 96.9886 131.859 96.625C131.215 96.2576 130.719 95.7386 130.371 95.0682C130.022 94.3939 129.848 93.5966 129.848 92.6761C129.848 91.7784 130.022 90.9905 130.371 90.3125C130.719 89.6345 131.21 89.1061 131.842 88.7273C132.479 88.3485 133.225 88.1591 134.081 88.1591C134.657 88.1591 135.193 88.2519 135.689 88.4375C136.189 88.6193 136.625 88.8939 136.996 89.2614C137.371 89.6288 137.662 90.0909 137.871 90.6477C138.079 91.2008 138.183 91.8485 138.183 92.5909V93.2557H130.814V91.7557H135.905C135.905 91.4072 135.829 91.0985 135.678 90.8295C135.526 90.5606 135.316 90.3504 135.047 90.1989C134.782 90.0436 134.473 89.9659 134.121 89.9659C133.753 89.9659 133.428 90.0511 133.143 90.2216C132.863 90.3883 132.643 90.6136 132.484 90.8977C132.325 91.178 132.244 91.4905 132.24 91.8352V93.2614C132.24 93.6932 132.32 94.0663 132.479 94.3807C132.642 94.6951 132.871 94.9375 133.166 95.108C133.462 95.2784 133.812 95.3636 134.217 95.3636C134.486 95.3636 134.732 95.3258 134.956 95.25C135.179 95.1742 135.371 95.0606 135.53 94.9091C135.689 94.7576 135.81 94.572 135.893 94.3523L138.132 94.5C138.018 95.0379 137.786 95.5076 137.433 95.9091C137.085 96.3068 136.634 96.6174 136.081 96.8409C135.532 97.0606 134.897 97.1705 134.178 97.1705ZM153.244 85.3636V97H151.119L146.057 89.6761H145.972V97H143.511V85.3636H145.67L150.693 92.6818H150.795V85.3636H153.244ZM159.175 97.1705C158.292 97.1705 157.529 96.983 156.885 96.608C156.245 96.2292 155.75 95.7027 155.402 95.0284C155.054 94.3504 154.879 93.5644 154.879 92.6705C154.879 91.7689 155.054 90.9811 155.402 90.3068C155.75 89.6288 156.245 89.1023 156.885 88.7273C157.529 88.3485 158.292 88.1591 159.175 88.1591C160.057 88.1591 160.819 88.3485 161.459 88.7273C162.103 89.1023 162.599 89.6288 162.947 90.3068C163.296 90.9811 163.47 91.7689 163.47 92.6705C163.47 93.5644 163.296 94.3504 162.947 95.0284C162.599 95.7027 162.103 96.2292 161.459 96.608C160.819 96.983 160.057 97.1705 159.175 97.1705ZM159.186 95.2955C159.588 95.2955 159.923 95.1818 160.192 94.9545C160.461 94.7235 160.663 94.4091 160.8 94.0114C160.94 93.6136 161.01 93.161 161.01 92.6534C161.01 92.1458 160.94 91.6932 160.8 91.2955C160.663 90.8977 160.461 90.5833 160.192 90.3523C159.923 90.1212 159.588 90.0057 159.186 90.0057C158.781 90.0057 158.44 90.1212 158.163 90.3523C157.891 90.5833 157.684 90.8977 157.544 91.2955C157.408 91.6932 157.339 92.1458 157.339 92.6534C157.339 93.161 157.408 93.6136 157.544 94.0114C157.684 94.4091 157.891 94.7235 158.163 94.9545C158.44 95.1818 158.781 95.2955 159.186 95.2955ZM179.06 89.4375H176.571C176.526 89.1155 176.433 88.8295 176.293 88.5795C176.152 88.3258 175.973 88.1098 175.753 87.9318C175.533 87.7538 175.279 87.6174 174.991 87.5227C174.707 87.428 174.399 87.3807 174.065 87.3807C173.463 87.3807 172.938 87.5303 172.491 87.8295C172.045 88.125 171.698 88.5568 171.452 89.125C171.205 89.6894 171.082 90.375 171.082 91.1818C171.082 92.0114 171.205 92.7083 171.452 93.2727C171.702 93.8371 172.05 94.2633 172.497 94.5511C172.944 94.839 173.461 94.983 174.048 94.983C174.378 94.983 174.683 94.9394 174.963 94.8523C175.247 94.7652 175.499 94.6383 175.719 94.4716C175.938 94.3011 176.12 94.0947 176.264 93.8523C176.412 93.6098 176.514 93.3333 176.571 93.0227L179.06 93.0341C178.995 93.5682 178.834 94.0833 178.577 94.5795C178.323 95.072 177.98 95.5133 177.548 95.9034C177.12 96.2898 176.609 96.5966 176.014 96.8239C175.423 97.0473 174.755 97.1591 174.009 97.1591C172.971 97.1591 172.043 96.9242 171.224 96.4545C170.41 95.9848 169.766 95.3049 169.293 94.4148C168.823 93.5246 168.588 92.447 168.588 91.1818C168.588 89.9129 168.827 88.8333 169.304 87.9432C169.781 87.053 170.429 86.375 171.247 85.9091C172.065 85.4394 172.986 85.2045 174.009 85.2045C174.683 85.2045 175.308 85.2992 175.884 85.4886C176.463 85.678 176.976 85.9545 177.423 86.3182C177.87 86.678 178.234 87.1193 178.514 87.642C178.798 88.1648 178.98 88.7633 179.06 89.4375ZM183.267 97.1648C182.71 97.1648 182.214 97.0682 181.778 96.875C181.343 96.678 180.998 96.3883 180.744 96.0057C180.494 95.6193 180.369 95.1383 180.369 94.5625C180.369 94.0777 180.458 93.6705 180.636 93.3409C180.814 93.0114 181.057 92.7462 181.364 92.5455C181.67 92.3447 182.019 92.1932 182.409 92.0909C182.803 91.9886 183.216 91.9167 183.648 91.875C184.155 91.822 184.564 91.7727 184.875 91.7273C185.186 91.678 185.411 91.6061 185.551 91.5114C185.691 91.4167 185.761 91.2765 185.761 91.0909V91.0568C185.761 90.697 185.648 90.4186 185.42 90.2216C185.197 90.0246 184.879 89.9261 184.466 89.9261C184.03 89.9261 183.684 90.0227 183.426 90.2159C183.169 90.4053 182.998 90.6439 182.915 90.9318L180.676 90.75C180.79 90.2197 181.013 89.7614 181.347 89.375C181.68 88.9848 182.11 88.6856 182.636 88.4773C183.167 88.2652 183.78 88.1591 184.477 88.1591C184.962 88.1591 185.426 88.2159 185.869 88.3295C186.316 88.4432 186.712 88.6193 187.057 88.858C187.405 89.0966 187.68 89.4034 187.881 89.7784C188.081 90.1496 188.182 90.5947 188.182 91.1136V97H185.886V95.7898H185.818C185.678 96.0625 185.491 96.303 185.256 96.5114C185.021 96.7159 184.739 96.8769 184.409 96.9943C184.08 97.108 183.699 97.1648 183.267 97.1648ZM183.96 95.4943C184.316 95.4943 184.631 95.4242 184.903 95.2841C185.176 95.1402 185.39 94.947 185.545 94.7045C185.701 94.4621 185.778 94.1875 185.778 93.8807V92.9545C185.703 93.0038 185.598 93.0492 185.466 93.0909C185.337 93.1288 185.191 93.1648 185.028 93.1989C184.866 93.2292 184.703 93.2576 184.54 93.2841C184.377 93.3068 184.229 93.3277 184.097 93.3466C183.813 93.3883 183.564 93.4545 183.352 93.5455C183.14 93.6364 182.975 93.7595 182.858 93.9148C182.741 94.0663 182.682 94.2557 182.682 94.483C182.682 94.8125 182.801 95.0644 183.04 95.2386C183.282 95.4091 183.589 95.4943 183.96 95.4943ZM190.06 97V88.2727H192.406V89.7955H192.497C192.656 89.2538 192.923 88.8447 193.298 88.5682C193.673 88.2879 194.105 88.1477 194.594 88.1477C194.715 88.1477 194.846 88.1553 194.986 88.1705C195.126 88.1856 195.249 88.2064 195.355 88.233V90.3807C195.241 90.3466 195.084 90.3163 194.884 90.2898C194.683 90.2633 194.499 90.25 194.332 90.25C193.976 90.25 193.658 90.3277 193.378 90.483C193.101 90.6345 192.882 90.8466 192.719 91.1193C192.56 91.392 192.48 91.7064 192.48 92.0625V97H190.06ZM199.416 97.142C198.753 97.142 198.153 96.9716 197.615 96.6307C197.081 96.286 196.657 95.7803 196.342 95.1136C196.032 94.4432 195.876 93.6212 195.876 92.6477C195.876 91.6477 196.037 90.8163 196.359 90.1534C196.681 89.4867 197.109 88.9886 197.643 88.6591C198.181 88.3258 198.77 88.1591 199.411 88.1591C199.899 88.1591 200.306 88.2424 200.632 88.4091C200.962 88.572 201.227 88.7765 201.428 89.0227C201.632 89.2652 201.787 89.5038 201.893 89.7386H201.967V85.3636H204.382V97H201.996V95.6023H201.893C201.78 95.8447 201.619 96.0852 201.411 96.3239C201.206 96.5587 200.939 96.7538 200.609 96.9091C200.284 97.0644 199.886 97.142 199.416 97.142ZM200.183 95.2159C200.573 95.2159 200.903 95.1098 201.172 94.8977C201.445 94.6818 201.653 94.3807 201.797 93.9943C201.945 93.608 202.018 93.1553 202.018 92.6364C202.018 92.1174 201.946 91.6667 201.803 91.2841C201.659 90.9015 201.45 90.6061 201.178 90.3977C200.905 90.1894 200.573 90.0852 200.183 90.0852C199.786 90.0852 199.45 90.1932 199.178 90.4091C198.905 90.625 198.698 90.9242 198.558 91.3068C198.418 91.6894 198.348 92.1326 198.348 92.6364C198.348 93.1439 198.418 93.5928 198.558 93.983C198.702 94.3693 198.909 94.6723 199.178 94.892C199.45 95.108 199.786 95.2159 200.183 95.2159ZM213.634 90.7614L211.418 90.8977C211.38 90.7083 211.298 90.5379 211.173 90.3864C211.048 90.2311 210.884 90.108 210.679 90.017C210.478 89.9223 210.238 89.875 209.957 89.875C209.582 89.875 209.266 89.9545 209.009 90.1136C208.751 90.2689 208.622 90.4773 208.622 90.7386C208.622 90.947 208.705 91.1231 208.872 91.267C209.039 91.411 209.325 91.5265 209.73 91.6136L211.31 91.9318C212.158 92.1061 212.791 92.3864 213.207 92.7727C213.624 93.1591 213.832 93.6667 213.832 94.2955C213.832 94.8674 213.664 95.3693 213.327 95.8011C212.993 96.233 212.535 96.5701 211.952 96.8125C211.372 97.0511 210.704 97.1705 209.946 97.1705C208.791 97.1705 207.87 96.9299 207.185 96.4489C206.503 95.964 206.103 95.3049 205.986 94.4716L208.366 94.3466C208.438 94.6989 208.613 94.9678 208.889 95.1534C209.166 95.3352 209.52 95.4261 209.952 95.4261C210.376 95.4261 210.717 95.3447 210.974 95.1818C211.236 95.0152 211.368 94.8011 211.372 94.5398C211.368 94.3201 211.276 94.1402 211.094 94C210.912 93.8561 210.632 93.7462 210.253 93.6705L208.741 93.3693C207.889 93.1989 207.255 92.9034 206.838 92.483C206.425 92.0625 206.219 91.5265 206.219 90.875C206.219 90.3144 206.37 89.8314 206.673 89.4261C206.98 89.0208 207.41 88.7083 207.963 88.4886C208.52 88.2689 209.171 88.1591 209.918 88.1591C211.02 88.1591 211.887 88.392 212.52 88.858C213.156 89.3239 213.527 89.9583 213.634 90.7614ZM229.798 91.1818C229.798 92.4508 229.558 93.5303 229.077 94.4205C228.599 95.3106 227.948 95.9905 227.122 96.4602C226.3 96.9261 225.376 97.1591 224.349 97.1591C223.315 97.1591 222.387 96.9242 221.565 96.4545C220.743 95.9848 220.094 95.3049 219.616 94.4148C219.139 93.5246 218.901 92.447 218.901 91.1818C218.901 89.9129 219.139 88.8333 219.616 87.9432C220.094 87.053 220.743 86.375 221.565 85.9091C222.387 85.4394 223.315 85.2045 224.349 85.2045C225.376 85.2045 226.3 85.4394 227.122 85.9091C227.948 86.375 228.599 87.053 229.077 87.9432C229.558 88.8333 229.798 89.9129 229.798 91.1818ZM227.304 91.1818C227.304 90.3598 227.181 89.6667 226.935 89.1023C226.692 88.5379 226.349 88.1098 225.906 87.8182C225.463 87.5265 224.944 87.3807 224.349 87.3807C223.755 87.3807 223.236 87.5265 222.793 87.8182C222.349 88.1098 222.005 88.5379 221.759 89.1023C221.516 89.6667 221.395 90.3598 221.395 91.1818C221.395 92.0038 221.516 92.697 221.759 93.2614C222.005 93.8258 222.349 94.2538 222.793 94.5455C223.236 94.8371 223.755 94.983 224.349 94.983C224.944 94.983 225.463 94.8371 225.906 94.5455C226.349 94.2538 226.692 93.8258 226.935 93.2614C227.181 92.697 227.304 92.0038 227.304 91.1818ZM233.996 91.9545V97H231.575V88.2727H233.882V89.8125H233.984C234.178 89.3049 234.501 88.9034 234.956 88.608C235.411 88.3087 235.962 88.1591 236.609 88.1591C237.215 88.1591 237.744 88.2917 238.195 88.5568C238.645 88.822 238.996 89.2008 239.246 89.6932C239.496 90.1818 239.621 90.7652 239.621 91.4432V97H237.2V91.875C237.204 91.3409 237.068 90.9242 236.791 90.625C236.515 90.322 236.134 90.1705 235.649 90.1705C235.323 90.1705 235.036 90.2405 234.786 90.3807C234.539 90.5208 234.346 90.7254 234.206 90.9943C234.07 91.2595 234 91.5795 233.996 91.9545ZM245.277 97V85.3636H252.982V87.392H247.737V90.1648H252.47V92.1932H247.737V97H245.277ZM254.591 97V88.2727H257.011V97H254.591ZM255.807 87.1477C255.447 87.1477 255.138 87.0284 254.881 86.7898C254.627 86.5473 254.5 86.2576 254.5 85.9205C254.5 85.5871 254.627 85.3011 254.881 85.0625C255.138 84.8201 255.447 84.6989 255.807 84.6989C256.167 84.6989 256.473 84.8201 256.727 85.0625C256.985 85.3011 257.114 85.5871 257.114 85.9205C257.114 86.2576 256.985 86.5473 256.727 86.7898C256.473 87.0284 256.167 87.1477 255.807 87.1477ZM261.371 85.3636V97H258.95V85.3636H261.371ZM267.287 97.1705C266.389 97.1705 265.616 96.9886 264.969 96.625C264.325 96.2576 263.829 95.7386 263.48 95.0682C263.132 94.3939 262.957 93.5966 262.957 92.6761C262.957 91.7784 263.132 90.9905 263.48 90.3125C263.829 89.6345 264.319 89.1061 264.952 88.7273C265.588 88.3485 266.334 88.1591 267.19 88.1591C267.766 88.1591 268.302 88.2519 268.798 88.4375C269.298 88.6193 269.734 88.8939 270.105 89.2614C270.48 89.6288 270.772 90.0909 270.98 90.6477C271.188 91.2008 271.293 91.8485 271.293 92.5909V93.2557H263.923V91.7557H269.014C269.014 91.4072 268.938 91.0985 268.787 90.8295C268.635 90.5606 268.425 90.3504 268.156 90.1989C267.891 90.0436 267.582 89.9659 267.23 89.9659C266.863 89.9659 266.537 90.0511 266.253 90.2216C265.973 90.3883 265.753 90.6136 265.594 90.8977C265.435 91.178 265.353 91.4905 265.349 91.8352V93.2614C265.349 93.6932 265.429 94.0663 265.588 94.3807C265.751 94.6951 265.98 94.9375 266.276 95.108C266.571 95.2784 266.921 95.3636 267.327 95.3636C267.596 95.3636 267.842 95.3258 268.065 95.25C268.289 95.1742 268.48 95.0606 268.639 94.9091C268.798 94.7576 268.92 94.572 269.003 94.3523L271.241 94.5C271.128 95.0379 270.895 95.5076 270.543 95.9091C270.194 96.3068 269.743 96.6174 269.19 96.8409C268.641 97.0606 268.007 97.1705 267.287 97.1705ZM274.287 97.1477C273.912 97.1477 273.59 97.0152 273.321 96.75C273.056 96.4811 272.923 96.1591 272.923 95.7841C272.923 95.4129 273.056 95.0947 273.321 94.8295C273.59 94.5644 273.912 94.4318 274.287 94.4318C274.651 94.4318 274.969 94.5644 275.241 94.8295C275.514 95.0947 275.651 95.4129 275.651 95.7841C275.651 96.0341 275.586 96.2633 275.457 96.4716C275.332 96.6761 275.168 96.8409 274.963 96.9659C274.759 97.0871 274.533 97.1477 274.287 97.1477Z" fill="black"/>
<path d="M72.1506 118H70.858L74.5966 107.818H75.8693L79.608 118H78.3153L75.2727 109.429H75.1932L72.1506 118ZM72.6278 114.023H77.8381V115.116H72.6278V114.023ZM83.9183 118.159C83.282 118.159 82.7202 117.998 82.233 117.677C81.7457 117.352 81.3646 116.895 81.0895 116.305C80.8144 115.711 80.6768 115.01 80.6768 114.202C80.6768 113.4 80.8144 112.704 81.0895 112.114C81.3646 111.524 81.7474 111.068 82.2379 110.746C82.7285 110.425 83.2952 110.264 83.9382 110.264C84.4354 110.264 84.8281 110.347 85.1165 110.513C85.4081 110.675 85.6302 110.861 85.7827 111.07C85.9384 111.275 86.0594 111.444 86.1456 111.577H86.245V107.818H87.4183V118H86.2848V116.827H86.1456C86.0594 116.966 85.9368 117.142 85.7777 117.354C85.6186 117.562 85.3916 117.75 85.0966 117.915C84.8016 118.078 84.4089 118.159 83.9183 118.159ZM84.0774 117.105C84.5481 117.105 84.9458 116.982 85.2706 116.737C85.5954 116.489 85.8423 116.146 86.0114 115.708C86.1804 115.267 86.2649 114.759 86.2649 114.182C86.2649 113.612 86.1821 113.113 86.0163 112.685C85.8506 112.254 85.6054 111.92 85.2805 111.681C84.9557 111.439 84.5547 111.318 84.0774 111.318C83.5803 111.318 83.166 111.446 82.8345 111.701C82.5064 111.953 82.2595 112.296 82.0938 112.73C81.9313 113.161 81.8501 113.645 81.8501 114.182C81.8501 114.725 81.933 115.219 82.0987 115.663C82.2678 116.104 82.5163 116.455 82.8445 116.717C83.1759 116.976 83.5869 117.105 84.0774 117.105ZM92.6136 118.159C91.9773 118.159 91.4155 117.998 90.9283 117.677C90.4411 117.352 90.0599 116.895 89.7848 116.305C89.5097 115.711 89.3722 115.01 89.3722 114.202C89.3722 113.4 89.5097 112.704 89.7848 112.114C90.0599 111.524 90.4427 111.068 90.9332 110.746C91.4238 110.425 91.9905 110.264 92.6335 110.264C93.1307 110.264 93.5234 110.347 93.8118 110.513C94.1035 110.675 94.3255 110.861 94.478 111.07C94.6338 111.275 94.7547 111.444 94.8409 111.577H94.9403V107.818H96.1136V118H94.9801V116.827H94.8409C94.7547 116.966 94.6321 117.142 94.473 117.354C94.3139 117.562 94.0869 117.75 93.7919 117.915C93.4969 118.078 93.1042 118.159 92.6136 118.159ZM92.7727 117.105C93.2434 117.105 93.6411 116.982 93.9659 116.737C94.2907 116.489 94.5376 116.146 94.7067 115.708C94.8757 115.267 94.9602 114.759 94.9602 114.182C94.9602 113.612 94.8774 113.113 94.7116 112.685C94.5459 112.254 94.3007 111.92 93.9759 111.681C93.651 111.439 93.25 111.318 92.7727 111.318C92.2756 111.318 91.8613 111.446 91.5298 111.701C91.2017 111.953 90.9548 112.296 90.7891 112.73C90.6267 113.161 90.5455 113.645 90.5455 114.182C90.5455 114.725 90.6283 115.219 90.794 115.663C90.9631 116.104 91.2116 116.455 91.5398 116.717C91.8712 116.976 92.2822 117.105 92.7727 117.105ZM104.61 118.179C104.126 118.179 103.687 118.088 103.293 117.906C102.898 117.72 102.585 117.453 102.353 117.105C102.121 116.754 102.005 116.33 102.005 115.832C102.005 115.395 102.091 115.04 102.263 114.768C102.436 114.493 102.666 114.278 102.955 114.122C103.243 113.966 103.561 113.85 103.909 113.774C104.26 113.695 104.613 113.632 104.968 113.585C105.432 113.526 105.808 113.481 106.097 113.451C106.388 113.418 106.6 113.363 106.733 113.287C106.869 113.211 106.937 113.078 106.937 112.889V112.849C106.937 112.359 106.803 111.978 106.534 111.706C106.269 111.434 105.866 111.298 105.326 111.298C104.766 111.298 104.327 111.421 104.009 111.666C103.69 111.911 103.467 112.173 103.337 112.452L102.224 112.054C102.423 111.59 102.688 111.229 103.019 110.97C103.354 110.708 103.719 110.526 104.113 110.423C104.511 110.317 104.902 110.264 105.286 110.264C105.531 110.264 105.813 110.294 106.131 110.354C106.453 110.41 106.763 110.528 107.061 110.707C107.363 110.886 107.613 111.156 107.812 111.517C108.011 111.878 108.11 112.362 108.11 112.969V118H106.937V116.966H106.877C106.798 117.132 106.665 117.309 106.479 117.498C106.294 117.687 106.047 117.848 105.739 117.98C105.43 118.113 105.054 118.179 104.61 118.179ZM104.789 117.125C105.253 117.125 105.644 117.034 105.962 116.852C106.284 116.669 106.526 116.434 106.688 116.146C106.854 115.857 106.937 115.554 106.937 115.236V114.162C106.887 114.222 106.778 114.276 106.609 114.326C106.443 114.372 106.251 114.414 106.032 114.45C105.817 114.483 105.606 114.513 105.401 114.54C105.198 114.563 105.034 114.583 104.908 114.599C104.603 114.639 104.318 114.704 104.053 114.793C103.791 114.879 103.579 115.01 103.417 115.186C103.258 115.358 103.178 115.594 103.178 115.892C103.178 116.3 103.329 116.608 103.631 116.817C103.936 117.022 104.322 117.125 104.789 117.125ZM114.189 120.864V110.364H115.323V111.577H115.462C115.548 111.444 115.667 111.275 115.82 111.07C115.976 110.861 116.198 110.675 116.486 110.513C116.778 110.347 117.172 110.264 117.669 110.264C118.312 110.264 118.879 110.425 119.369 110.746C119.86 111.068 120.243 111.524 120.518 112.114C120.793 112.704 120.931 113.4 120.931 114.202C120.931 115.01 120.793 115.711 120.518 116.305C120.243 116.895 119.862 117.352 119.374 117.677C118.887 117.998 118.325 118.159 117.689 118.159C117.199 118.159 116.806 118.078 116.511 117.915C116.216 117.75 115.989 117.562 115.83 117.354C115.671 117.142 115.548 116.966 115.462 116.827H115.362V120.864H114.189ZM115.343 114.182C115.343 114.759 115.427 115.267 115.596 115.708C115.765 116.146 116.012 116.489 116.337 116.737C116.662 116.982 117.059 117.105 117.53 117.105C118.021 117.105 118.43 116.976 118.758 116.717C119.089 116.455 119.338 116.104 119.504 115.663C119.673 115.219 119.757 114.725 119.757 114.182C119.757 113.645 119.674 113.161 119.509 112.73C119.346 112.296 119.099 111.953 118.768 111.701C118.44 111.446 118.027 111.318 117.53 111.318C117.053 111.318 116.652 111.439 116.327 111.681C116.002 111.92 115.757 112.254 115.591 112.685C115.425 113.113 115.343 113.612 115.343 114.182ZM124.968 118.179C124.484 118.179 124.044 118.088 123.65 117.906C123.256 117.72 122.942 117.453 122.71 117.105C122.478 116.754 122.362 116.33 122.362 115.832C122.362 115.395 122.449 115.04 122.621 114.768C122.793 114.493 123.024 114.278 123.312 114.122C123.6 113.966 123.919 113.85 124.267 113.774C124.618 113.695 124.971 113.632 125.325 113.585C125.789 113.526 126.166 113.481 126.454 113.451C126.746 113.418 126.958 113.363 127.09 113.287C127.226 113.211 127.294 113.078 127.294 112.889V112.849C127.294 112.359 127.16 111.978 126.892 111.706C126.626 111.434 126.224 111.298 125.683 111.298C125.123 111.298 124.684 111.421 124.366 111.666C124.048 111.911 123.824 112.173 123.695 112.452L122.581 112.054C122.78 111.59 123.045 111.229 123.377 110.97C123.711 110.708 124.076 110.526 124.47 110.423C124.868 110.317 125.259 110.264 125.644 110.264C125.889 110.264 126.171 110.294 126.489 110.354C126.81 110.41 127.12 110.528 127.419 110.707C127.72 110.886 127.97 111.156 128.169 111.517C128.368 111.878 128.468 112.362 128.468 112.969V118H127.294V116.966H127.235C127.155 117.132 127.022 117.309 126.837 117.498C126.651 117.687 126.404 117.848 126.096 117.98C125.788 118.113 125.412 118.179 124.968 118.179ZM125.146 117.125C125.61 117.125 126.002 117.034 126.32 116.852C126.641 116.669 126.883 116.434 127.046 116.146C127.211 115.857 127.294 115.554 127.294 115.236V114.162C127.244 114.222 127.135 114.276 126.966 114.326C126.8 114.372 126.608 114.414 126.389 114.45C126.174 114.483 125.963 114.513 125.758 114.54C125.556 114.563 125.392 114.583 125.266 114.599C124.961 114.639 124.676 114.704 124.411 114.793C124.149 114.879 123.937 115.01 123.774 115.186C123.615 115.358 123.536 115.594 123.536 115.892C123.536 116.3 123.686 116.608 123.988 116.817C124.293 117.022 124.679 117.125 125.146 117.125ZM131.091 120.864C130.892 120.864 130.715 120.847 130.559 120.814C130.404 120.784 130.296 120.754 130.236 120.724L130.534 119.69C130.819 119.763 131.071 119.79 131.29 119.77C131.509 119.75 131.703 119.652 131.872 119.477C132.044 119.304 132.202 119.024 132.344 118.636L132.563 118.04L129.739 110.364H131.012L133.12 116.449H133.199L135.307 110.364H136.58L133.338 119.114C133.193 119.508 133.012 119.835 132.797 120.093C132.581 120.355 132.331 120.549 132.046 120.675C131.764 120.801 131.446 120.864 131.091 120.864ZM138.129 118V110.364H139.262V111.557H139.362C139.521 111.149 139.777 110.833 140.132 110.607C140.487 110.379 140.913 110.264 141.41 110.264C141.914 110.264 142.333 110.379 142.668 110.607C143.006 110.833 143.269 111.149 143.458 111.557H143.538C143.733 111.162 144.027 110.849 144.418 110.617C144.809 110.382 145.278 110.264 145.825 110.264C146.507 110.264 147.066 110.478 147.5 110.906C147.934 111.33 148.151 111.991 148.151 112.889V118H146.978V112.889C146.978 112.326 146.824 111.923 146.516 111.681C146.207 111.439 145.844 111.318 145.427 111.318C144.89 111.318 144.474 111.481 144.179 111.805C143.884 112.127 143.737 112.535 143.737 113.028V118H142.543V112.77C142.543 112.336 142.402 111.986 142.121 111.721C141.839 111.452 141.476 111.318 141.032 111.318C140.727 111.318 140.442 111.399 140.177 111.562C139.915 111.724 139.703 111.95 139.54 112.238C139.381 112.523 139.302 112.853 139.302 113.227V118H138.129ZM153.498 118.159C152.762 118.159 152.128 117.997 151.594 117.672C151.064 117.344 150.654 116.886 150.366 116.3C150.081 115.71 149.939 115.024 149.939 114.241C149.939 113.459 150.081 112.77 150.366 112.173C150.654 111.573 151.056 111.106 151.569 110.771C152.086 110.433 152.69 110.264 153.379 110.264C153.777 110.264 154.169 110.33 154.557 110.463C154.945 110.596 155.298 110.811 155.616 111.109C155.934 111.404 156.188 111.795 156.377 112.283C156.566 112.77 156.66 113.37 156.66 114.082V114.58H150.774V113.565H155.467C155.467 113.134 155.381 112.75 155.208 112.412C155.039 112.074 154.797 111.807 154.483 111.612C154.171 111.416 153.803 111.318 153.379 111.318C152.912 111.318 152.507 111.434 152.166 111.666C151.828 111.895 151.568 112.193 151.385 112.561C151.203 112.929 151.112 113.323 151.112 113.744V114.42C151.112 114.997 151.211 115.486 151.41 115.887C151.612 116.285 151.892 116.588 152.25 116.797C152.608 117.002 153.024 117.105 153.498 117.105C153.806 117.105 154.085 117.062 154.333 116.976C154.585 116.886 154.802 116.754 154.985 116.578C155.167 116.399 155.308 116.177 155.407 115.912L156.541 116.23C156.422 116.615 156.221 116.953 155.939 117.244C155.658 117.533 155.31 117.758 154.895 117.92C154.481 118.08 154.015 118.159 153.498 118.159ZM159.618 113.406V118H158.445V110.364H159.578V111.557H159.678C159.857 111.169 160.129 110.857 160.493 110.622C160.858 110.384 161.328 110.264 161.905 110.264C162.422 110.264 162.875 110.37 163.262 110.582C163.65 110.791 163.952 111.109 164.167 111.537C164.383 111.961 164.49 112.498 164.49 113.148V118H163.317V113.227C163.317 112.627 163.161 112.16 162.85 111.825C162.538 111.487 162.111 111.318 161.567 111.318C161.193 111.318 160.858 111.399 160.563 111.562C160.271 111.724 160.041 111.961 159.872 112.273C159.703 112.584 159.618 112.962 159.618 113.406ZM169.955 110.364V111.358H165.998V110.364H169.955ZM167.151 108.534H168.325V115.812C168.325 116.144 168.373 116.393 168.469 116.558C168.568 116.721 168.694 116.83 168.847 116.886C169.003 116.939 169.167 116.966 169.339 116.966C169.468 116.966 169.574 116.959 169.657 116.946C169.74 116.929 169.806 116.916 169.856 116.906L170.095 117.96C170.015 117.99 169.904 118.02 169.762 118.05C169.619 118.083 169.438 118.099 169.22 118.099C168.888 118.099 168.563 118.028 168.245 117.886C167.93 117.743 167.669 117.526 167.46 117.234C167.254 116.943 167.151 116.575 167.151 116.131V108.534ZM175.658 118V110.364H176.791V111.557H176.891C177.05 111.149 177.307 110.833 177.661 110.607C178.016 110.379 178.442 110.264 178.939 110.264C179.443 110.264 179.862 110.379 180.197 110.607C180.535 110.833 180.798 111.149 180.987 111.557H181.067C181.262 111.162 181.556 110.849 181.947 110.617C182.338 110.382 182.807 110.264 183.354 110.264C184.037 110.264 184.595 110.478 185.029 110.906C185.463 111.33 185.681 111.991 185.681 112.889V118H184.507V112.889C184.507 112.326 184.353 111.923 184.045 111.681C183.737 111.439 183.374 111.318 182.956 111.318C182.419 111.318 182.003 111.481 181.708 111.805C181.413 112.127 181.266 112.535 181.266 113.028V118H180.073V112.77C180.073 112.336 179.932 111.986 179.65 111.721C179.368 111.452 179.005 111.318 178.561 111.318C178.256 111.318 177.971 111.399 177.706 111.562C177.444 111.724 177.232 111.95 177.07 112.238C176.911 112.523 176.831 112.853 176.831 113.227V118H175.658ZM191.028 118.159C190.292 118.159 189.657 117.997 189.123 117.672C188.593 117.344 188.184 116.886 187.895 116.3C187.61 115.71 187.468 115.024 187.468 114.241C187.468 113.459 187.61 112.77 187.895 112.173C188.184 111.573 188.585 111.106 189.099 110.771C189.616 110.433 190.219 110.264 190.908 110.264C191.306 110.264 191.699 110.33 192.086 110.463C192.474 110.596 192.827 110.811 193.145 111.109C193.464 111.404 193.717 111.795 193.906 112.283C194.095 112.77 194.189 113.37 194.189 114.082V114.58H188.303V113.565H192.996C192.996 113.134 192.91 112.75 192.738 112.412C192.569 112.074 192.327 111.807 192.012 111.612C191.7 111.416 191.332 111.318 190.908 111.318C190.441 111.318 190.037 111.434 189.695 111.666C189.357 111.895 189.097 112.193 188.915 112.561C188.732 112.929 188.641 113.323 188.641 113.744V114.42C188.641 114.997 188.741 115.486 188.939 115.887C189.142 116.285 189.422 116.588 189.78 116.797C190.138 117.002 190.554 117.105 191.028 117.105C191.336 117.105 191.614 117.062 191.863 116.976C192.115 116.886 192.332 116.754 192.514 116.578C192.696 116.399 192.837 116.177 192.937 115.912L194.07 116.23C193.951 116.615 193.75 116.953 193.469 117.244C193.187 117.533 192.839 117.758 192.425 117.92C192.01 118.08 191.545 118.159 191.028 118.159ZM199.295 110.364V111.358H195.338V110.364H199.295ZM196.491 108.534H197.665V115.812C197.665 116.144 197.713 116.393 197.809 116.558C197.908 116.721 198.034 116.83 198.187 116.886C198.342 116.939 198.506 116.966 198.679 116.966C198.808 116.966 198.914 116.959 198.997 116.946C199.08 116.929 199.146 116.916 199.196 116.906L199.434 117.96C199.355 117.99 199.244 118.02 199.101 118.05C198.959 118.083 198.778 118.099 198.559 118.099C198.228 118.099 197.903 118.028 197.585 117.886C197.27 117.743 197.008 117.526 196.8 117.234C196.594 116.943 196.491 116.575 196.491 116.131V108.534ZM202.398 113.406V118H201.224V107.818H202.398V111.557H202.497C202.676 111.162 202.944 110.849 203.302 110.617C203.664 110.382 204.144 110.264 204.744 110.264C205.265 110.264 205.72 110.369 206.111 110.577C206.502 110.783 206.806 111.099 207.021 111.527C207.24 111.951 207.349 112.491 207.349 113.148V118H206.176V113.227C206.176 112.621 206.019 112.152 205.704 111.82C205.392 111.486 204.96 111.318 204.406 111.318C204.022 111.318 203.677 111.399 203.372 111.562C203.07 111.724 202.832 111.961 202.656 112.273C202.484 112.584 202.398 112.962 202.398 113.406ZM212.598 118.159C211.909 118.159 211.304 117.995 210.783 117.667C210.266 117.339 209.862 116.88 209.57 116.29C209.282 115.7 209.138 115.01 209.138 114.222C209.138 113.426 209.282 112.732 209.57 112.138C209.862 111.545 210.266 111.085 210.783 110.756C211.304 110.428 211.909 110.264 212.598 110.264C213.287 110.264 213.891 110.428 214.408 110.756C214.928 111.085 215.332 111.545 215.621 112.138C215.912 112.732 216.058 113.426 216.058 114.222C216.058 115.01 215.912 115.7 215.621 116.29C215.332 116.88 214.928 117.339 214.408 117.667C213.891 117.995 213.287 118.159 212.598 118.159ZM212.598 117.105C213.122 117.105 213.553 116.971 213.891 116.702C214.229 116.434 214.479 116.081 214.641 115.643C214.804 115.206 214.885 114.732 214.885 114.222C214.885 113.711 214.804 113.236 214.641 112.795C214.479 112.354 214.229 111.998 213.891 111.726C213.553 111.454 213.122 111.318 212.598 111.318C212.074 111.318 211.643 111.454 211.305 111.726C210.967 111.998 210.717 112.354 210.555 112.795C210.392 113.236 210.311 113.711 210.311 114.222C210.311 114.732 210.392 115.206 210.555 115.643C210.717 116.081 210.967 116.434 211.305 116.702C211.643 116.971 212.074 117.105 212.598 117.105ZM220.733 118.159C220.096 118.159 219.535 117.998 219.047 117.677C218.56 117.352 218.179 116.895 217.904 116.305C217.629 115.711 217.491 115.01 217.491 114.202C217.491 113.4 217.629 112.704 217.904 112.114C218.179 111.524 218.562 111.068 219.052 110.746C219.543 110.425 220.11 110.264 220.753 110.264C221.25 110.264 221.643 110.347 221.931 110.513C222.223 110.675 222.445 110.861 222.597 111.07C222.753 111.275 222.874 111.444 222.96 111.577H223.059V107.818H224.233V118H223.099V116.827H222.96C222.874 116.966 222.751 117.142 222.592 117.354C222.433 117.562 222.206 117.75 221.911 117.915C221.616 118.078 221.223 118.159 220.733 118.159ZM220.892 117.105C221.363 117.105 221.76 116.982 222.085 116.737C222.41 116.489 222.657 116.146 222.826 115.708C222.995 115.267 223.079 114.759 223.079 114.182C223.079 113.612 222.997 113.113 222.831 112.685C222.665 112.254 222.42 111.92 222.095 111.681C221.77 111.439 221.369 111.318 220.892 111.318C220.395 111.318 219.98 111.446 219.649 111.701C219.321 111.953 219.074 112.296 218.908 112.73C218.746 113.161 218.665 113.645 218.665 114.182C218.665 114.725 218.747 115.219 218.913 115.663C219.082 116.104 219.331 116.455 219.659 116.717C219.99 116.976 220.401 117.105 220.892 117.105ZM230.641 118V107.818H231.814V111.577H231.914C232 111.444 232.119 111.275 232.272 111.07C232.428 110.861 232.65 110.675 232.938 110.513C233.23 110.347 233.624 110.264 234.121 110.264C234.764 110.264 235.331 110.425 235.822 110.746C236.312 111.068 236.695 111.524 236.97 112.114C237.245 112.704 237.383 113.4 237.383 114.202C237.383 115.01 237.245 115.711 236.97 116.305C236.695 116.895 236.314 117.352 235.827 117.677C235.339 117.998 234.778 118.159 234.141 118.159C233.651 118.159 233.258 118.078 232.963 117.915C232.668 117.75 232.441 117.562 232.282 117.354C232.123 117.142 232 116.966 231.914 116.827H231.775V118H230.641ZM231.795 114.182C231.795 114.759 231.879 115.267 232.048 115.708C232.217 116.146 232.464 116.489 232.789 116.737C233.114 116.982 233.511 117.105 233.982 117.105C234.473 117.105 234.882 116.976 235.21 116.717C235.541 116.455 235.79 116.104 235.956 115.663C236.125 115.219 236.209 114.725 236.209 114.182C236.209 113.645 236.126 113.161 235.961 112.73C235.798 112.296 235.551 111.953 235.22 111.701C234.892 111.446 234.479 111.318 233.982 111.318C233.505 111.318 233.104 111.439 232.779 111.681C232.454 111.92 232.209 112.254 232.043 112.685C231.877 113.113 231.795 113.612 231.795 114.182ZM242.379 118.159C241.643 118.159 241.009 117.997 240.475 117.672C239.945 117.344 239.535 116.886 239.247 116.3C238.962 115.71 238.819 115.024 238.819 114.241C238.819 113.459 238.962 112.77 239.247 112.173C239.535 111.573 239.936 111.106 240.45 110.771C240.967 110.433 241.57 110.264 242.26 110.264C242.657 110.264 243.05 110.33 243.438 110.463C243.826 110.596 244.179 110.811 244.497 111.109C244.815 111.404 245.069 111.795 245.258 112.283C245.447 112.77 245.541 113.37 245.541 114.082V114.58H239.655V113.565H244.348C244.348 113.134 244.262 112.75 244.089 112.412C243.92 112.074 243.678 111.807 243.363 111.612C243.052 111.416 242.684 111.318 242.26 111.318C241.792 111.318 241.388 111.434 241.047 111.666C240.709 111.895 240.448 112.193 240.266 112.561C240.084 112.929 239.993 113.323 239.993 113.744V114.42C239.993 114.997 240.092 115.486 240.291 115.887C240.493 116.285 240.773 116.588 241.131 116.797C241.489 117.002 241.905 117.105 242.379 117.105C242.687 117.105 242.966 117.062 243.214 116.976C243.466 116.886 243.683 116.754 243.866 116.578C244.048 116.399 244.189 116.177 244.288 115.912L245.422 116.23C245.302 116.615 245.102 116.953 244.82 117.244C244.538 117.533 244.19 117.758 243.776 117.92C243.362 118.08 242.896 118.159 242.379 118.159ZM248.499 107.818V118H247.326V107.818H248.499ZM253.75 118.159C253.061 118.159 252.456 117.995 251.936 117.667C251.419 117.339 251.014 116.88 250.723 116.29C250.434 115.7 250.29 115.01 250.29 114.222C250.29 113.426 250.434 112.732 250.723 112.138C251.014 111.545 251.419 111.085 251.936 110.756C252.456 110.428 253.061 110.264 253.75 110.264C254.44 110.264 255.043 110.428 255.56 110.756C256.08 111.085 256.485 111.545 256.773 112.138C257.065 112.732 257.211 113.426 257.211 114.222C257.211 115.01 257.065 115.7 256.773 116.29C256.485 116.88 256.08 117.339 255.56 117.667C255.043 117.995 254.44 118.159 253.75 118.159ZM253.75 117.105C254.274 117.105 254.705 116.971 255.043 116.702C255.381 116.434 255.631 116.081 255.794 115.643C255.956 115.206 256.037 114.732 256.037 114.222C256.037 113.711 255.956 113.236 255.794 112.795C255.631 112.354 255.381 111.998 255.043 111.726C254.705 111.454 254.274 111.318 253.75 111.318C253.227 111.318 252.796 111.454 252.458 111.726C252.12 111.998 251.869 112.354 251.707 112.795C251.545 113.236 251.463 113.711 251.463 114.222C251.463 114.732 251.545 115.206 251.707 115.643C251.869 116.081 252.12 116.434 252.458 116.702C252.796 116.971 253.227 117.105 253.75 117.105ZM260.472 118L258.145 110.364H259.378L261.029 116.21H261.108L262.739 110.364H263.992L265.603 116.19H265.682L267.333 110.364H268.566L266.239 118H265.086L263.415 112.134H263.296L261.625 118H260.472ZM269.933 118.08C269.688 118.08 269.477 117.992 269.301 117.816C269.126 117.64 269.038 117.43 269.038 117.185C269.038 116.939 269.126 116.729 269.301 116.553C269.477 116.378 269.688 116.29 269.933 116.29C270.178 116.29 270.389 116.378 270.564 116.553C270.74 116.729 270.828 116.939 270.828 117.185C270.828 117.347 270.786 117.496 270.703 117.632C270.624 117.768 270.516 117.877 270.38 117.96C270.248 118.04 270.099 118.08 269.933 118.08Z" fill="black"/>
</svg>
