<svg width="18" height="18" viewBox="0 0 18 18" fill="none" xmlns="http://www.w3.org/2000/svg">
<path d="M0.48214 12.8571H11.0491C11.3304 12.8571 11.5714 12.6562 11.5714 12.375V10.808C11.5714 10.5268 11.3304 10.2857 11.0491 10.2857H0.48214C0.20089 10.2857 0 10.5268 0 10.808V12.375C0 12.6562 0.20089 12.8571 0.48214 12.8571ZM0.48214 2.57143H11.0491C11.3304 2.57143 11.5714 2.37054 11.5714 2.08929V0.52232C11.5714 0.24107 11.3304 0 11.0491 0H0.48214C0.20089 0 0 0.24107 0 0.52232V2.08929C0 2.37054 0.20089 2.57143 0.48214 2.57143ZM17.3571 5.14286H0.64286C0.28125 5.14286 0 5.46429 0 5.78571V7.07143C0 7.43304 0.28125 7.71429 0.64286 7.71429H17.3571C17.6786 7.71429 18 7.43304 18 7.07143V5.78571C18 5.46429 17.6786 5.14286 17.3571 5.14286ZM17.3571 15.4286H0.64286C0.28125 15.4286 0 15.75 0 16.0714V17.3571C0 17.7188 0.28125 18 0.64286 18H17.3571C17.6786 18 18 17.7188 18 17.3571V16.0714C18 15.75 17.6786 15.4286 17.3571 15.4286Z" fill="black"/>
</svg>
