<svg width="19" height="18" viewBox="0 0 19 18" fill="none" xmlns="http://www.w3.org/2000/svg">
<rect width="19" height="18" fill="#E5E5E5"/>
<g id="Frame 290222">
<rect width="2402" height="1655" transform="translate(-1903 -1186)" fill="#E5E5E5"/>
<g id="App - Okta Login - Button">
<rect x="-105" y="-15" width="345" height="48" rx="6" fill="#3F59E4"/>
<g id="Frame 1000005668">
<g id="okta_symbol.svg" clip-path="url(#clip0_398_11820)">
<g id="Group">
<path id="Vector" fill-rule="evenodd" clip-rule="evenodd" d="M10.4014 0.114105L10.0294 4.67829C9.85771 4.64976 9.68601 4.64976 9.48569 4.64976C9.25676 4.64976 9.02782 4.67829 8.8275 4.70681L8.62719 2.5103C8.62719 2.45325 8.68442 2.36767 8.74165 2.36767H9.11367L8.94197 0.142631C8.94197 0.0855784 8.9992 0 9.05644 0H10.287C10.3728 0 10.43 0.0570523 10.4014 0.114105ZM7.31081 0.342314C7.28219 0.285261 7.22496 0.228209 7.16773 0.256735L6.02305 0.684628C5.9372 0.713154 5.90859 0.798732 5.9372 0.855784L6.88156 2.88114L6.53816 3.02377C6.48092 3.0523 6.4523 3.10935 6.48092 3.19493L7.42528 5.19176C7.76868 4.99208 8.1407 4.84945 8.54134 4.76387L7.31081 0.342314ZM4.50636 1.62599L7.16773 5.36292C6.82432 5.59113 6.53816 5.84786 6.2806 6.13312L4.64944 4.56418C4.59221 4.50713 4.59221 4.42155 4.64944 4.39303L4.93561 4.16482L3.36169 2.56735C3.30445 2.5103 3.30445 2.42472 3.36169 2.3962L4.30604 1.62599C4.36328 1.54041 4.44913 1.56894 4.50636 1.62599ZM2.27424 3.76545C2.21701 3.73693 2.13116 3.73693 2.10254 3.79398L1.50159 4.84945C1.47297 4.9065 1.50159 4.99208 1.55882 5.0206L3.59062 5.99049L3.3903 6.30428C3.36169 6.36133 3.3903 6.44691 3.44754 6.47544L5.47933 7.38827C5.62242 7.01743 5.82273 6.67512 6.05167 6.36133L2.27424 3.76545ZM0.757552 6.64659C0.757552 6.58954 0.843402 6.53249 0.900636 6.56101L5.33625 7.70206C5.22178 8.0729 5.16455 8.47227 5.13593 8.87163L2.90382 8.70047C2.84658 8.70047 2.78935 8.64342 2.78935 8.55784L2.84658 8.18701L0.671701 7.98732C0.614467 7.98732 0.557234 7.93027 0.557234 7.84469L0.757552 6.64659ZM0.614467 9.64184C0.528617 9.64184 0.5 9.69889 0.5 9.78447L0.728935 10.9826C0.728935 11.0396 0.814785 11.0967 0.872019 11.0681L3.0469 10.4976L3.10413 10.8685C3.10413 10.9255 3.18998 10.9826 3.24722 10.954L5.39348 10.355C5.27901 9.98415 5.19316 9.58479 5.16455 9.18542L0.614467 9.64184ZM1.32989 12.8082C1.30127 12.7512 1.32989 12.6656 1.38712 12.6371L5.53657 10.6688C5.67965 11.0396 5.90858 11.3819 6.16614 11.6957L4.36328 12.9794C4.30604 13.0079 4.22019 13.0079 4.19157 12.9509L3.93402 12.6371L2.07393 13.9208C2.01669 13.9493 1.93084 13.9493 1.90223 13.8922L1.32989 12.8082ZM6.33784 11.9525L3.10413 15.2044C3.0469 15.2615 3.0469 15.3471 3.10413 15.3756L4.04849 16.1458C4.10572 16.2029 4.19157 16.1743 4.22019 16.1173L5.53657 14.2916L5.82273 14.5483C5.87997 14.6054 5.96582 14.5769 5.99444 14.5198L7.25358 12.6941C6.91017 12.4945 6.59539 12.2377 6.33784 11.9525ZM5.70827 17.1442C5.65103 17.1157 5.62242 17.0586 5.65103 16.9731L7.53975 12.8368C7.88315 13.0079 8.28378 13.1506 8.6558 13.2361L8.08347 15.3756C8.05485 15.4326 7.99762 15.4897 7.94038 15.4612L7.59698 15.3185L6.99603 17.4865C6.96741 17.5436 6.91017 17.6006 6.85294 17.5721L5.70827 17.1442ZM8.97059 13.2932L8.59857 17.8574C8.59857 17.9144 8.6558 18 8.71304 18H9.94356C10.0008 18 10.058 17.9429 10.058 17.8574L9.88633 15.6323H10.2583C10.3156 15.6323 10.3728 15.5753 10.3728 15.4897L10.1725 13.2932C9.94356 13.3217 9.74324 13.3502 9.51431 13.3502C9.34261 13.3217 9.14229 13.3217 8.97059 13.2932ZM13.4062 0.969889C13.4348 0.912837 13.4062 0.827258 13.349 0.798732L12.2043 0.37084C12.1471 0.342314 12.0612 0.399366 12.0612 0.456418L11.4603 2.62441L11.1169 2.48177C11.0596 2.45325 10.9738 2.5103 10.9738 2.56735L10.4014 4.70681C10.8021 4.79239 11.1741 4.93502 11.5175 5.10618L13.4062 0.969889ZM15.9245 2.76704L12.6908 6.01902C12.4332 5.73376 12.1184 5.47702 11.775 5.27734L13.0342 3.45166C13.0628 3.39461 13.1486 3.39461 13.2059 3.42314L13.4921 3.67987L14.8084 1.8542C14.837 1.79715 14.9229 1.79715 14.9801 1.82567L15.9245 2.59588C15.9531 2.65293 15.9531 2.73851 15.9245 2.76704ZM17.6415 5.33439C17.6987 5.30586 17.7273 5.22029 17.6987 5.16323L17.0978 4.10777C17.0692 4.05071 16.9833 4.02219 16.9261 4.07924L15.066 5.36292L14.8657 5.04913C14.837 4.99208 14.7512 4.96355 14.694 5.0206L12.8911 6.27575C13.1486 6.58954 13.349 6.93185 13.5207 7.30269L17.6415 5.33439ZM18.2997 6.98891L18.5 8.18701C18.5 8.24406 18.4714 8.32964 18.3855 8.32964L13.8355 8.75753C13.8068 8.35816 13.721 7.9588 13.6065 7.58796L15.7528 6.98891C15.81 6.96038 15.8959 7.01743 15.8959 7.07448L15.9531 7.44532L18.128 6.8748C18.2138 6.8748 18.2711 6.93185 18.2997 6.98891ZM18.0994 11.4105C18.1566 11.439 18.2424 11.3819 18.2424 11.3249L18.4428 10.1268C18.4428 10.0697 18.4141 9.98415 18.3283 9.98415L16.0962 9.78447L16.1534 9.41363C16.1534 9.35658 16.1248 9.271 16.0389 9.271L13.8068 9.09984C13.8068 9.49921 13.721 9.89857 13.6065 10.2694L18.0994 11.4105ZM16.9261 14.149C16.8975 14.206 16.8116 14.2345 16.7544 14.1775L12.9769 11.5816C13.2059 11.2678 13.4062 10.9255 13.5493 10.5547L15.5811 11.4675C15.6383 11.496 15.6669 11.5816 15.6383 11.6387L15.438 11.981L17.4698 12.9509C17.527 12.9794 17.5556 13.065 17.527 13.122L16.9261 14.149ZM11.8609 12.6086L14.5223 16.3455C14.5509 16.4025 14.6367 16.4025 14.694 16.374L15.6383 15.6038C15.6955 15.5468 15.6955 15.4897 15.6383 15.4326L14.0644 13.8352L14.3506 13.607C14.4078 13.5499 14.4078 13.4929 14.3506 13.4358L12.7766 11.8669C12.5191 12.1521 12.2043 12.4089 11.8609 12.6086ZM11.8609 17.6862C11.8037 17.7147 11.7178 17.6577 11.7178 17.6006L10.5159 13.2076C10.9165 13.122 11.2886 12.9794 11.632 12.7797L12.5763 14.7765C12.6049 14.8336 12.5763 14.9192 12.5191 14.9477L12.1757 15.0903L13.12 17.1157C13.1486 17.1727 13.12 17.2583 13.0628 17.2868L11.8609 17.6862Z" fill="white"/>
</g>
</g>
</g>
</g>
</g>
<defs>
<clipPath id="clip0_398_11820">
<rect width="18" height="18" fill="white" transform="translate(0.5)"/>
</clipPath>
</defs>
</svg>
