<svg width="14" height="14" viewBox="0 0 14 14" fill="none" xmlns="http://www.w3.org/2000/svg">
<g clip-path="url(#clip0_9909_27812)">
<path d="M6.48053 13.7036C5.77135 12.6756 5.16543 11.8124 4.64846 11.0759C3.71673 9.74855 3.07392 8.8328 2.63628 8.1051C2.29635 7.53987 2.08112 7.08952 1.95072 6.64918C1.82037 6.20902 1.77441 5.77766 1.77441 5.25C1.77441 2.36398 4.11398 0.0244141 7 0.0244141C9.88602 0.0244141 12.2256 2.36398 12.2256 5.25C12.2256 5.77766 12.1796 6.20902 12.0493 6.64918C11.9189 7.08952 11.7037 7.53987 11.3637 8.1051C10.9261 8.8328 10.2833 9.74855 9.35154 11.0759C8.83456 11.8124 8.22863 12.6756 7.51945 13.7037C7.26843 14.0663 6.73151 14.0662 6.48053 13.7036ZM7 7.46191C8.22161 7.46191 9.21191 6.47161 9.21191 5.25C9.21191 4.02839 8.22161 3.03809 7 3.03809C5.77839 3.03809 4.78809 4.02839 4.78809 5.25C4.78809 6.47161 5.77839 7.46191 7 7.46191Z" fill="#171717" stroke="black" stroke-width="0.0488281"/>
</g>
<defs>
<clipPath id="clip0_9909_27812">
<rect width="14" height="14" fill="white"/>
</clipPath>
</defs>
</svg>
