<svg width="30" height="30" viewBox="0 0 30 30" fill="none" xmlns="http://www.w3.org/2000/svg">
<path d="M12.4873 21.5737C14.1561 21.5737 15.5089 20.379 15.5089 18.5521V5H19.1325C18.9293 7.47153 21.3862 9.85897 24.0958 9.80437V13.2118C21.7785 13.2118 19.8081 12.232 19.1222 11.6882V18.5521C19.1222 21.5737 16.7452 25 12.4873 25C8.22942 25 5.9043 21.5737 5.9043 18.5521C5.9043 14.2875 10.4173 11.8142 13.4064 12.4187V15.8894C13.2561 15.8362 12.8683 15.7576 12.538 15.7576C10.8554 15.6955 9.4658 17.0602 9.4658 18.5521C9.4658 20.2209 10.8186 21.5737 12.4873 21.5737Z" fill="black"/>
</svg>
