<svg width="19" height="18" viewBox="0 0 19 18" fill="none" xmlns="http://www.w3.org/2000/svg">
<path d="M6.8947 6.1506L6.63465 6.18851L2.06902 6.85414L2.06866 6.85419C1.66056 6.91338 1.49563 7.41825 1.79257 7.70738L1.79272 7.70752L5.09584 10.9263L5.28421 11.1098L5.23967 11.369L4.45848 15.9156C4.45846 15.9157 4.45845 15.9157 4.45843 15.9158C4.45843 15.9159 4.45842 15.9159 4.45842 15.9159C4.3886 16.3256 4.82072 16.6339 5.18143 16.4426L5.183 16.4418L9.26738 14.2949L9.50002 14.1726L9.73265 14.2949L13.817 16.4418L13.8171 16.4418C14.1814 16.6334 14.6112 16.3223 14.5416 15.9156L13.7604 11.369L13.7158 11.1098L13.9042 10.9263L17.2073 7.70752L17.2075 7.70738C17.5044 7.41825 17.3395 6.91338 16.9314 6.85419L16.931 6.85414L12.3654 6.18851L12.1053 6.1506L11.9891 5.91491L9.94892 1.77833C9.94886 1.77821 9.9488 1.77809 9.94874 1.77797C9.76412 1.40625 9.23435 1.40756 9.05157 1.77741L6.8947 6.1506ZM6.8947 6.1506L7.01094 5.91491L9.05147 1.77759L6.8947 6.1506Z" stroke="black"/>
</svg>
