<svg width="30" height="30" viewBox="0 0 30 30" fill="none" xmlns="http://www.w3.org/2000/svg">
<path d="M11.8956 17.3453L12.9364 17.1017C12.9556 17.0953 12.9939 17.0889 13.0386 17.0761C13.326 16.9992 13.5686 16.8133 13.7219 16.5569C13.8752 16.3005 13.9262 15.9993 13.856 15.7044C13.856 15.698 13.856 15.6916 13.8496 15.6852C13.8177 15.5442 13.7538 15.416 13.6708 15.2942C13.5559 15.1468 13.409 15.025 13.2493 14.9289C13.0578 14.8199 12.8534 14.7238 12.6491 14.6469L11.5124 14.2303C10.8739 13.9931 10.2353 13.7624 9.59032 13.5316C9.16886 13.3842 8.81764 13.2496 8.51112 13.1535C8.45365 13.1342 8.38979 13.115 8.33871 13.1022C7.96834 12.9868 7.70652 12.9419 7.48302 12.9355C7.33615 12.9291 7.18927 12.9548 7.04879 13.0124C6.9083 13.0765 6.78059 13.1663 6.67203 13.2816C6.62094 13.3393 6.56986 13.4034 6.52516 13.4675C6.48046 13.5316 6.44214 13.6021 6.41021 13.6726C6.3719 13.7495 6.33997 13.8265 6.30804 13.9034C6.09731 14.5315 5.98875 15.1917 5.99514 15.8519C6.00153 16.4479 6.0143 17.2171 6.33997 17.7363C6.4166 17.8709 6.52516 17.9862 6.65287 18.076C6.88914 18.2362 7.12542 18.2618 7.36808 18.2747C7.73206 18.3003 8.08966 18.2106 8.44727 18.1272L11.8956 17.3453Z" fill="black"/>
<path d="M23.4855 11.8059C23.2045 11.2098 22.8213 10.665 22.3552 10.1907C22.2977 10.133 22.2339 10.0753 22.1636 10.024C22.0998 9.97915 22.0359 9.93428 21.9657 9.88941C21.8954 9.85095 21.8252 9.81891 21.7549 9.78686C21.6081 9.72917 21.4548 9.70354 21.3015 9.70995C21.1547 9.71636 21.0078 9.76122 20.8801 9.83173C20.6821 9.92787 20.465 10.0881 20.184 10.3573C20.1457 10.3958 20.0946 10.4406 20.0499 10.4855C19.8137 10.7098 19.5518 10.979 19.2389 11.2995C18.76 11.7866 18.2811 12.2802 17.8149 12.7737L16.972 13.6518C16.8187 13.812 16.6783 13.9851 16.5505 14.171C16.442 14.3248 16.3654 14.5043 16.327 14.6837C16.3015 14.8247 16.3079 14.9722 16.3398 15.1132C16.3398 15.1196 16.3398 15.126 16.3462 15.1324C16.4101 15.4208 16.5889 15.6772 16.8379 15.8374C17.0869 15.9977 17.3871 16.0618 17.6808 16.0041C17.7255 15.9977 17.7638 15.9913 17.783 15.9849L22.2722 14.9401C22.6234 14.8568 22.9874 14.7799 23.3003 14.6004C23.511 14.4786 23.7154 14.3504 23.8558 14.1069C23.9325 13.9723 23.9772 13.8184 23.9899 13.6646C24.0602 13.0493 23.7409 12.3507 23.4855 11.8059Z" fill="black"/>
<path d="M15.446 13.7044C15.7717 13.2942 15.7717 12.6853 15.7972 12.179C15.893 10.5061 15.9952 8.83963 16.0782 7.16675C16.1101 6.53221 16.1804 5.91049 16.1421 5.26954C16.1101 4.74396 16.1101 4.14146 15.7781 3.70562C15.1906 2.94288 13.9454 3.00698 13.0961 3.12235C12.8342 3.16081 12.5724 3.20567 12.317 3.26977C12.0616 3.33386 11.7998 3.39796 11.5507 3.48128C10.7333 3.75048 9.59029 4.24401 9.39233 5.18621C9.28377 5.7182 9.5392 6.26301 9.74354 6.75013C9.9862 7.33981 10.3183 7.8718 10.6248 8.42942C11.4294 9.8972 12.2468 11.3522 13.0641 12.8135C13.3068 13.2494 13.575 13.8006 14.0475 14.0249C14.0795 14.0377 14.1114 14.0506 14.1433 14.0634C14.3541 14.1467 14.5839 14.1595 14.8074 14.1082C14.8202 14.1082 14.833 14.1018 14.8458 14.1018C15.0501 14.0442 15.2353 13.9352 15.3758 13.7814C15.3949 13.7557 15.4205 13.7301 15.446 13.7044Z" fill="black"/>
<path d="M15.0563 18.1785C14.9286 17.999 14.7498 17.8644 14.539 17.7939C14.3283 17.7234 14.1048 17.7234 13.8941 17.7875C13.843 17.8068 13.7983 17.826 13.7536 17.8452C13.6833 17.8837 13.6131 17.9221 13.5492 17.9734C13.3641 18.1144 13.2044 18.2939 13.0639 18.4734C13.0256 18.5182 12.9937 18.5823 12.949 18.6208L12.2274 19.6207C11.8187 20.1783 11.4164 20.7423 11.0141 21.3064C10.7523 21.6717 10.5288 21.9858 10.35 22.2614C10.3181 22.3126 10.2797 22.3703 10.2478 22.4152C10.0307 22.7485 9.91576 22.9921 9.8519 23.2036C9.8072 23.3446 9.78804 23.4984 9.8072 23.6458C9.82636 23.7997 9.87744 23.9535 9.96046 24.0881C10.0052 24.1586 10.0499 24.2227 10.1009 24.2804C10.152 24.3381 10.2095 24.3957 10.267 24.4534C10.3308 24.5111 10.3947 24.5688 10.4649 24.6137C10.963 24.9598 11.5122 25.2097 12.0869 25.4084C12.5658 25.5687 13.0639 25.6648 13.562 25.6905C13.645 25.6969 13.7344 25.6905 13.8175 25.684C13.8941 25.6776 13.9771 25.6648 14.0537 25.652C14.1304 25.6328 14.207 25.6135 14.2836 25.5879C14.4305 25.5302 14.5646 25.4469 14.6731 25.3379C14.7817 25.229 14.8583 25.1008 14.9094 24.9598C14.9924 24.7483 15.0499 24.4855 15.0818 24.0945C15.0818 24.0368 15.0946 23.9727 15.101 23.9086C15.1265 23.5817 15.1457 23.1972 15.1648 22.7485C15.2032 22.0563 15.2287 21.364 15.2479 20.6718L15.2926 19.4412C15.3053 19.1592 15.2926 18.8451 15.2159 18.5631C15.184 18.4285 15.1329 18.3003 15.0563 18.1785Z" fill="black"/>
<path d="M23.2108 20.1081C23.0576 19.9414 22.8468 19.7748 22.5084 19.5697C22.4573 19.544 22.3998 19.5056 22.3487 19.4735C22.0678 19.3069 21.7293 19.1274 21.3334 18.9095C20.7268 18.5762 20.1201 18.2493 19.5071 17.9288L18.4215 17.352C18.364 17.3327 18.3066 17.2943 18.2555 17.2686C18.0447 17.1661 17.8276 17.0764 17.5977 17.0315C17.5211 17.0187 17.4381 17.0059 17.3615 17.0059C17.3104 17.0059 17.2593 17.0059 17.2082 17.0123C16.9911 17.0443 16.7931 17.1469 16.6335 17.3007C16.4802 17.4545 16.3717 17.6532 16.3398 17.8711C16.3206 18.0122 16.327 18.1468 16.3525 18.2878C16.4036 18.5762 16.5313 18.8646 16.6654 19.1146L17.2465 20.2042C17.5658 20.8195 17.8915 21.4284 18.2299 22.0373C18.447 22.4347 18.6258 22.7744 18.7919 23.0564C18.8238 23.1077 18.8621 23.1654 18.8877 23.2167C19.092 23.5564 19.258 23.7679 19.4241 23.9217C19.5326 24.0243 19.6603 24.1076 19.8008 24.1525C19.9477 24.2037 20.1073 24.2166 20.2606 24.2037C20.3372 24.1973 20.4202 24.1781 20.4969 24.1653C20.5735 24.1461 20.6501 24.1204 20.7204 24.0884C20.8034 24.0563 20.88 24.0243 20.9503 23.9794C21.3909 23.7294 21.7932 23.4282 22.1572 23.0757C22.5914 22.6462 22.9682 22.1847 23.2683 21.6528C23.3066 21.5758 23.3449 21.4989 23.3768 21.4156C23.4024 21.3387 23.4279 21.2682 23.4471 21.1913C23.4662 21.1144 23.479 21.031 23.4854 20.9541C23.4982 20.8003 23.479 20.6401 23.4343 20.4926C23.396 20.3452 23.313 20.217 23.2108 20.1081Z" fill="black"/>
</svg>
