<svg width="109" height="108" viewBox="0 0 109 108" fill="none" xmlns="http://www.w3.org/2000/svg">
<path d="M61.9852 55.8711L57.4406 60.4156L69.4703 73.2473C66.2624 76.1879 65.9951 77.2572 68.6683 80.1978C75.5296 86.7918 88.8244 100.087 91.391 102.653L91.3911 102.653C93.9574 105.22 95.6683 104.792 96.203 104.257C97.9852 102.386 102.031 98.1622 103.955 96.2374C105.88 94.3127 104.757 92.0493 103.955 91.1582C97.4505 84.7424 83.799 71.2691 81.2327 68.7028C78.0248 65.4949 76.6881 67.0988 74.1931 68.9701L61.9852 55.8711Z" fill="#E5E5E5" stroke="#E5E5E5" stroke-width="6" stroke-linecap="round"/>
<path d="M44.6089 28.0693L28.5693 44.1089M28.0347 27L45.1436 44.1089" stroke="#E5E5E5" stroke-width="6" stroke-linecap="round"/>
<circle cx="36.5891" cy="36.0882" r="29.8812" stroke="#E5E5E5" stroke-width="6"/>
</svg>
