<svg width="176" height="75" viewBox="0 0 176 75" fill="none" xmlns="http://www.w3.org/2000/svg">
<path d="M75.3292 14.9141L60.7392 20.588C55.5517 22.101 47.6079 23.6681 50.0398 32.4221C51.8862 39.0686 60.7392 36.4748 69.6554 36.4748H114.074C116.343 36.4748 121.012 35.6643 121.531 32.4221C122.179 28.3693 123.476 26.7482 114.074 22.3712L94.6205 14.9141" stroke="#E0E0E0" stroke-width="8"/>
<path d="M50.1193 14.1032C46.715 14.9138 17.697 23.8296 11.3748 26.91C5.05253 29.9904 2.32895 37.9983 5.05242 47.9844C7.77589 57.9704 16.7785 60.8992 20.9393 61.1154C25.1002 61.3315 56.1175 53.0099 62.1156 47.9844C68.1136 42.9589 69.7672 35.2749 66.6547 25.2889C63.5421 15.3028 53.5237 13.2927 50.1193 14.1032Z" stroke="#E0E0E0" stroke-width="8"/>
<path d="M160.912 25.8744C157.635 24.6469 128.581 15.8493 121.616 14.8767C114.65 13.9041 107.921 19.0287 104.607 28.8347C101.294 38.6407 107.129 46.0955 110.461 48.5971C113.793 51.0987 144.174 61.5052 151.956 60.6829C159.738 59.8607 165.399 54.4077 168.389 44.3845C171.38 34.3614 164.189 27.1019 160.912 25.8744Z" stroke="#E0E0E0" stroke-width="8"/>
</svg>
