<svg width="112" height="163" viewBox="0 0 112 163" fill="none" xmlns="http://www.w3.org/2000/svg">
<path d="M2 3.28008H11.1169C11.7247 5.80475 14.2026 10.8541 19.2519 10.8541C24.3013 10.8541 25.7039 6.22531 25.7039 3.84115C25.7039 1.457 30.3325 1.31657 30.3325 3.84115C30.3325 6.36574 31.0338 10.4333 36.9247 10.4333C43.5449 10.4333 44.2182 5.8045 44.2182 3.84115C44.2182 1.8778 48.8468 1.73754 48.8468 3.84115C48.8468 5.94476 51.5397 10.4333 56.1403 10.4333C60.7408 10.4333 62.8727 6.22618 62.8727 3.84146C62.8727 1.45673 66.8 1.73756 66.8 3.84115C66.8 5.94475 68.427 10.4333 74.374 10.4333C80.321 10.4333 81.2468 6.22617 81.2468 3.84146C81.2468 1.45674 85.7351 1.45704 85.7351 3.84146C85.7351 6.22587 88.9891 10.4333 93.5896 10.4333C98.1901 10.4333 100.275 5.66449 100.743 3.28008H110V159.249H100.743C100.182 156.958 97.7132 152.376 92.3273 152.376C86.9413 152.376 85.4545 156.584 85.4545 158.548C85.4545 160.512 81.387 160.652 81.387 158.548C81.387 156.444 79.7039 152.376 74.6545 152.376C69.6052 152.376 67.2208 156.303 67.2208 158.548C67.2208 160.792 63.2935 160.933 63.2935 158.548C63.2935 156.163 59.9553 152.376 55.5792 152.376C51.2031 152.376 48.987 156.724 48.987 158.548C48.987 160.372 44.0779 160.933 44.0779 158.548C44.0779 156.163 41.3288 152.376 37.0649 152.376C32.801 152.376 30.4727 156.444 30.4727 158.548C30.4727 160.652 25.7039 160.792 25.7039 158.548C25.7039 156.304 23.4036 152.376 19.2519 152.376C15.1003 152.376 12.0987 156.958 11.1169 159.249H2V3.28008Z" stroke="#E0E0E0" stroke-width="4" stroke-linejoin="round"/>
<path d="M17.0077 29.3691H66.0986M79.0025 29.3691H95.5532M17.0077 41.9925H44.9194M79.0025 41.9925H95.5532M79.0025 53.4938H95.5532M79.0025 66.6782H95.5532M79.0025 79.0211H95.5532M79.0025 89.9613H95.5532M17.0077 53.4938H61.47M17.0077 66.6782H56.7012M15.1843 79.0211H61.47M15.1843 89.9613H56.7012M79.0025 124.746H95.5532M17.0077 124.746H66.0986" stroke="#E0E0E0" stroke-width="4" stroke-linecap="round" stroke-linejoin="round"/>
</svg>
