<svg width="12" height="14" viewBox="0 0 12 14" fill="none" xmlns="http://www.w3.org/2000/svg">
<path d="M6 2.625C4.55078 2.625 3.375 3.82812 3.375 5.25C3.375 6.69922 4.55078 7.875 6 7.875C7.42188 7.875 8.625 6.69922 8.625 5.25C8.625 3.82812 7.42188 2.625 6 2.625ZM6 7C5.01562 7 4.25 6.23437 4.25 5.25C4.25 4.29297 5.01562 3.5 6 3.5C6.95703 3.5 7.75 4.29297 7.75 5.25C7.75 6.23437 6.95703 7 6 7ZM6 0C3.07422 0 0.75 2.35156 0.75 5.25C0.75 7.38281 1.46094 7.98437 5.45312 13.7266C5.69922 14.1094 6.27344 14.1094 6.51953 13.7266C10.5117 7.98437 11.25 7.38281 11.25 5.25C11.25 2.35156 8.89844 0 6 0ZM6 12.9609C2.17188 7.46484 1.625 7.02734 1.625 5.25C1.625 4.10156 2.0625 3.00781 2.88281 2.16016C3.73047 1.33984 4.82422 0.875 6 0.875C7.14844 0.875 8.24219 1.33984 9.0898 2.16016C9.9102 3.00781 10.375 4.10156 10.375 5.25C10.375 7.02734 9.80083 7.46484 6 12.9609Z" fill="black"/>
</svg>
